Coordinates
version=1
nRows=16
nColumns=36
inDegrees=yes

Units are S.I. units (second, meters, Newtons, ...)
If the header above contains a line with 'inDegrees', this indicates whether rotational values are in degrees (yes) or radians (no).

endheader
time	pelvis_tilt	pelvis_list	pelvis_rotation	pelvis_tx	pelvis_ty	pelvis_tz	hip_flexion_r	hip_adduction_r	hip_rotation_r	knee_angle_r	knee_angle_r_beta	ankle_angle_r	subtalar_angle_r	mtp_angle_r	hip_flexion_l	hip_adduction_l	hip_rotation_l	knee_angle_l	knee_angle_l_beta	ankle_angle_l	subtalar_angle_l	mtp_angle_l	lumbar_extension	lumbar_bending	lumbar_rotation	arm_flex_r	arm_add_r	arm_rot_r	elbow_flex_r	pro_sup_r	arm_flex_l	arm_add_l	arm_rot_l	elbow_flex_l	pro_sup_l
      4.98333330	     -8.69713640	      2.98013994	      0.22446578	     -0.20596716	      1.21434564	      0.11121704	      9.90500971	     -2.30133966	      4.94244699	      5.26174000	      0.09183469	     10.30856235	     -8.37937565	     -7.49999987	      9.11626906	     -1.01845963	    -10.07673312	      4.23631034	      0.07393756	     11.40698586	     -1.44463225	     -7.49999987	      2.24778677	     -1.45336625	     -2.01995850	      5.45723009	    -14.91315421	     32.80737715	     28.00502068	     56.25842293	     -2.23575001	    -17.81156040	     31.90138378	     28.81869742	     51.70537808
      5.00000000	     -8.60792212	      2.96511158	      0.04801726	     -0.20789164	      1.21512376	      0.11091326	      9.74646503	     -2.28692894	      4.83606263	      5.20908483	      0.09091568	     10.07476573	     -8.37091444	     -7.49999987	      8.89876301	     -1.01543408	    -10.14575131	      4.16997700	      0.07277983	     11.32782498	     -1.53648493	     -7.49999987	      2.02036379	     -1.36921772	     -1.79142245	      5.44103409	    -14.72030547	     32.43218208	     28.03276535	     56.50665816	     -2.15347344	    -17.57933301	     31.28222910	     29.08066799	     52.22551527
      5.01666670	     -8.55127932	      2.94105369	     -0.07683906	     -0.20746751	      1.21464701	      0.11086123	      9.63885558	     -2.27224162	      4.76904735	      5.07493434	      0.08857431	      9.79492598	     -8.30830446	     -7.49999987	      8.71668794	     -1.00203181	    -10.14041052	      4.02873356	      0.07031467	     11.07919339	     -1.92522786	     -7.49999987	      1.78807611	     -1.31861002	     -1.57875109	      5.31010490	    -14.59902282	     31.78211061	     28.34608543	     56.82544314	     -2.20449409	    -17.40789999	     30.44243112	     29.52386227	     52.97830199
      5.03333330	     -8.61269702	      2.86951757	     -0.10730128	     -0.20457881	      1.21449961	      0.11092669	      9.64198176	     -2.20300427	      4.92535276	      4.93562826	      0.08614296	      9.62378552	     -8.35095319	     -7.49999987	      8.65981026	     -1.07066954	    -10.32351303	      3.91783058	      0.06837904	     11.12608663	     -1.78076968	     -7.49999987	      1.94135885	     -1.21070033	     -1.52749277	      5.33062260	    -14.22012166	     31.37080850	     27.71324893	     57.10609313	     -2.21013311	    -16.99182053	     29.76793625	     29.02021095	     53.53591875
      5.05000000	     -8.48357281	      2.80398959	     -0.20041070	     -0.20423585	      1.21416267	      0.11097798	      9.47747376	     -2.15456554	      4.89334208	      4.91407712	      0.08576683	      9.69296792	     -8.13885781	     -7.49999987	      8.36896432	     -1.12561360	    -10.19511578	      3.78604180	      0.06607890	     11.03829177	     -1.99162486	     -7.49999987	      1.73295330	     -1.08118071	     -1.39441974	      5.15123552	    -14.08433597	     30.72971841	     28.01895295	     57.45424731	     -2.30277557	    -16.77850150	     28.88106864	     29.45332352	     54.32494712
      5.06666670	     -8.50544901	      2.78789620	     -0.21701809	     -0.20503316	      1.21532344	      0.11041792	      9.50553372	     -2.17956390	      4.78964679	      4.86653819	      0.08493711	      9.63478556	     -8.07404151	     -7.49999987	      8.32148966	     -1.11036123	    -10.20601617	      3.72580649	      0.06502759	     10.85389647	     -2.16322386	     -7.49999987	      1.81756331	     -1.02514207	     -1.31740116	      4.99808385	    -13.90272616	     30.37288741	     28.12265175	     57.65230083	     -2.36101881	    -16.56378057	     28.34622772	     29.65882850	     54.77756636
      5.08333330	     -8.31231513	      2.71926320	     -0.21679202	     -0.20380409	      1.21277109	      0.11090526	      9.17433755	     -2.12026956	      4.82679809	      4.74930044	      0.08289093	      9.56793369	     -8.11903248	     -7.49999987	      8.03307359	     -1.16114053	    -10.06528027	      3.63782408	      0.06349201	     11.14832787	     -1.85869072	     -7.49999987	      1.63526702	     -0.91726125	     -1.28492928	      4.94697598	    -13.63476733	     29.72045228	     28.01186439	     57.94974612	     -2.36912978	    -16.30863895	     27.48224188	     29.70405392	     55.45526348
      5.10000000	     -8.41680331	      2.66925515	     -0.19470339	     -0.20717325	      1.21235221	      0.11005487	      9.46769563	     -2.03733304	      5.00310316	      4.92310618	      0.08592441	      9.55084944	     -8.42088423	     -7.49999987	      8.20519286	     -1.20060762	    -10.08538031	      3.75601796	      0.06555488	     11.29997721	     -1.85380868	     -7.49999987	      1.76952291	     -0.82859040	     -1.28295495	      5.05280971	    -13.34569879	     29.40203247	     27.60642952	     58.25317598	     -2.19828390	    -16.01045897	     26.93201037	     29.41072037	     56.07720677
      5.11666670	     -8.25539673	      2.59311650	     -0.20347032	     -0.20507595	      1.21231473	      0.11049262	      9.24771336	     -1.97157501	      5.02380226	      4.89702155	      0.08546915	      9.59130967	     -8.39464459	     -7.49999987	      8.00265077	     -1.26554705	     -9.95064324	      3.74279087	      0.06532402	     11.51045331	     -1.61500798	     -7.49999987	      1.57830408	     -0.70834499	     -1.22461147	      4.97316843	    -13.25371253	     29.00387942	     27.91314256	     58.46487944	     -2.21578194	    -15.90345206	     26.36409549	     29.85647818	     56.56653626
      5.13333330	     -8.14642749	      2.49173510	     -0.17031819	     -0.20530338	      1.21265001	      0.11049237	      9.20794755	     -1.81580826	      5.18746793	      5.07937534	      0.08865182	      9.83962903	     -8.44846156	     -7.49999987	      7.90919965	     -1.35441554	     -9.51254587	      3.74629788	      0.06538523	     11.58254531	     -1.90424356	     -7.49999987	      1.40876137	     -0.57391335	     -1.26599123	      4.92430582	    -13.11970347	     28.58669581	     28.13679349	     58.67441488	     -2.21913967	    -15.78025374	     25.75640520	     30.17602564	     57.13297635
      5.15000000	     -8.14883086	      2.35989346	     -0.11775930	     -0.20474082	      1.21240435	      0.11043520	      9.21032689	     -1.67141654	      5.25862621	      5.16705262	      0.09018208	      9.89429231	     -8.65447004	     -7.49999987	      7.93390096	     -1.49771758	     -9.39034073	      3.83352999	      0.06690772	     11.89543331	     -1.58984537	     -7.49999987	      1.52957323	     -0.39980356	     -1.34324064	      4.99364957	    -12.90376425	     28.40363801	     27.78653242	     58.87195377	     -2.16597516	    -15.57620176	     25.40711249	     29.92805191	     57.56988240
      5.16666670	     -8.19647354	      2.29469795	     -0.18937441	     -0.20444228	      1.21371272	      0.11046392	      9.23904327	     -1.59591301	      5.31209875	      5.34001302	      0.09320081	      9.65630311	     -9.12275020	     -7.49999987	      8.00523372	     -1.57580328	     -9.32523566	      3.89626615	      0.06800267	     12.02739071	     -1.54529011	     -7.49999987	      1.70026043	     -0.30610901	     -1.36270211	      5.05307195	    -12.70497817	     28.21927873	     27.45841603	     59.34851003	     -2.21762838	    -15.37673617	     24.78079928	     29.76097680	     58.61752198
      5.18333330	     -7.97462297	      2.25961998	     -0.23594599	     -0.20421579	      1.21351147	      0.11030908	      8.95100642	     -1.57232852	      5.10129857	      5.39028034	      0.09407814	      9.56113379	     -9.24980522	     -7.49999987	      7.73046558	     -1.59759536	     -9.13121002	      3.88239275	      0.06776054	     11.93802691	     -1.89496331	     -7.49999987	      1.35912948	     -0.25318031	     -1.29527663	      4.89617999	    -12.72129556	     27.62239191	     28.14695474	     59.48877791	     -2.31654987	    -15.36968022	     24.10201610	     30.51570466	     59.04615720
      5.20000000	     -7.94829519	      2.24304222	     -0.24093447	     -0.20434712	      1.21316378	      0.11004173	      8.87309573	     -1.56115037	      5.16019880	      5.33774756	      0.09316127	      9.29811922	     -9.68412259	     -7.49999987	      7.70258973	     -1.60388082	     -8.98505490	      3.92186670	      0.06844949	     11.72786004	     -2.19033844	     -7.49999987	      1.36394986	     -0.21343375	     -1.31895995	      4.88173945	    -12.56640048	     27.20152595	     28.12277098	     59.61886954	     -2.30058528	    -15.26273728	     23.66476593	     30.55601740	     59.40670427
      5.21666670	     -8.11380567	      2.21586445	     -0.20919948	     -0.20447918	      1.21276952	      0.10989065	      9.02081399	     -1.55555405	      5.03833553	      5.26262528	      0.09185014	      9.17010144	     -9.79422088	     -7.49999987	      7.97202875	     -1.63333240	     -9.09236656	      4.08252551	      0.07125351	     11.84725613	     -1.94446566	     -7.49999987	      1.71876917	     -0.15111751	     -1.34010561	      5.00528157	    -12.40002646	     27.31599818	     27.48414015	     60.05185084	     -2.20422992	    -15.08656577	     23.51211543	     30.01646595	     60.48308244
      5.23333330	     -8.15577115	      2.18358799	     -0.16065026	     -0.20482255	      1.21278404	      0.11023016	      9.05009366	     -1.53982048	      5.02059475	      5.13863977	      0.08968618	      9.04747632	     -9.97923983	     -7.49999987	      8.04749166	     -1.66223499	     -8.95306875	      4.10390462	      0.07162665	     11.76300206	     -2.01538395	     -7.49999987	      1.75160903	     -0.11173934	     -1.33691200	      4.98097220	    -12.35901878	     27.10519880	     27.54064746	     60.39298380	     -2.18248300	    -15.04760001	     23.11077229	     30.13565693	     61.45271436
